M48
; DRILL file {KiCad 5.1.0-rc2-unknown-036be7d~80~ubuntu16.04.1} date 10.04.2023 (пн) 13:58:05 EEST
; FORMAT={-:-/ absolute / inch / decimal}
; #@! TF.CreationDate,2023-04-10T13:58:05+03:00*
; #@! TF.GenerationSoftware,Kicad,Pcbnew,5.1.0-rc2-unknown-036be7d~80~ubuntu16.04.1
; #@! TF.FileFunction,Plated,1,4,PTH
FMAT,2
INCH
T1C0.0157
T2C0.0236
T3C0.0315
T4C0.0354
T5C0.0394
T6C0.0433
T7C0.0472
T8C0.0591
%
G90
G05
T1
X3.225Y-2.95
X3.255Y-2.915
X3.255Y-3.64
X3.265Y-3.7
X3.365Y-4.88
X3.365Y-4.915
X3.455Y-1.85
X3.475Y-3.6
X3.475Y-2.05
X3.475Y-3.5
X3.475Y-3.55
X3.4761Y-2.3
X3.4788Y-3.4
X3.48Y-1.825
X3.48Y-2.1
X3.48Y-2.15
X3.48Y-2.2
X3.5Y-2.0
X3.5Y-2.575
X3.5Y-2.625
X3.52Y-2.35
X3.52Y-2.3
X3.52Y-2.835
X3.525Y-2.095
X3.53Y-2.45
X3.5316Y-2.8035
X3.5491Y-2.7739
X3.555Y-2.12
X3.555Y-2.07
X3.555Y-1.995
X3.56Y-2.5
X3.56Y-3.365
X3.575Y-3.335
X3.5757Y-3.3006
X3.5765Y-2.7465
X3.59Y-2.315
X3.605Y-4.525
X3.6109Y-3.2991
X3.6109Y-3.2641
X3.615Y-4.27
X3.625Y-2.345
X3.64Y-4.45
X3.65Y-3.265
X3.6514Y-3.2314
X3.675Y-2.175
X3.675Y-2.29
X3.6978Y-2.6087
X3.7175Y-2.5815
X3.785Y-2.365
X3.7987Y-2.4339
X3.8107Y-2.8889
X3.8143Y-2.8393
X3.8166Y-2.4623
X3.82Y-4.1
X3.82Y-4.2
X3.8238Y-2.9198
X3.825Y-1.825
X3.825Y-3.8202
X3.825Y-3.9
X3.8401Y-2.4381
X3.8424Y-2.4046
X3.845Y-4.15
X3.8584Y-2.9129
X3.86Y-1.825
X3.88Y-2.4375
X3.8822Y-2.4772
X3.89Y-2.315
X3.892Y-2.913
X3.8959Y-2.9465
X3.921Y-2.466
X3.925Y-2.345
X3.9294Y-2.9485
X3.9548Y-2.4621
X3.975Y-2.175
X3.975Y-4.57
X3.975Y-2.29
X3.9869Y-2.7175
X3.9939Y-2.6844
X3.994Y-2.6509
X3.9949Y-3.5753
X4.01Y-4.6888
X4.01Y-5.065
X4.0296Y-2.6277
X4.0505Y-2.6015
X4.06Y-3.43
X4.0818Y-2.5893
X4.085Y-3.46
X4.0875Y-2.365
X4.0886Y-2.5565
X4.11Y-3.2102
X4.11Y-3.255
X4.115Y-2.43
X4.1189Y-2.5421
X4.1241Y-2.9013
X4.1371Y-3.4373
X4.1395Y-3.2843
X4.14Y-1.995
X4.14Y-2.035
X4.14Y-3.2348
X4.1489Y-2.2311
X4.15Y-2.275
X4.1517Y-2.5346
X4.1536Y-2.1926
X4.1581Y-2.404
X4.1594Y-2.32
X4.1594Y-2.365
X4.1741Y-2.925
X4.1992Y-3.0642
X4.2064Y-3.3239
X4.215Y-1.82
X4.2172Y-2.495
X4.2239Y-3.0889
X4.225Y-2.405
X4.2273Y-2.4508
X4.245Y-1.85
X4.245Y-1.96
X4.245Y-2.03
X4.2556Y-2.9273
X4.2557Y-2.362
X4.2558Y-2.32
X4.2652Y-2.3945
X4.285Y-3.725
X4.2856Y-3.0502
X4.295Y-1.99
X4.295Y-2.07
X4.3057Y-2.9206
X4.3094Y-2.1644
X4.3098Y-3.645
X4.3231Y-3.0502
X4.335Y-2.73
X4.345Y-2.1
X4.3552Y-2.935
X4.3744Y-2.7456
X4.375Y-3.1021
X4.375Y-3.06
X4.3794Y-2.802
X4.39Y-2.1
X4.3949Y-2.7722
X4.4Y-3.62
X4.4Y-3.725
X4.4Y-3.925
X4.4323Y-2.8122
X4.45Y-1.975
X4.45Y-2.1
X4.45Y-2.2
X4.4627Y-2.8264
X4.465Y-3.62
X4.465Y-3.725
X4.465Y-3.925
X4.4698Y-2.8592
X4.475Y-3.05
X4.48Y-3.28
X4.495Y-1.79
X4.495Y-2.78
X4.495Y-5.124
X4.5138Y-3.2702
X4.5198Y-2.845
X4.5217Y-3.2376
X4.525Y-3.62
X4.525Y-3.725
X4.525Y-3.925
X4.525Y-5.124
X4.535Y-2.2
X4.5439Y-3.3122
X4.5492Y-2.8616
X4.55Y-1.79
X4.5696Y-3.2122
X4.575Y-3.05
X4.575Y-1.985
X4.575Y-2.8892
X4.575Y-3.1
X4.6Y-3.43
X4.6Y-3.62
X4.6Y-3.725
X4.6Y-3.925
X4.6012Y-2.8649
X4.61Y-1.79
X4.625Y-3.205
X4.625Y-3.095
X4.63Y-3.315
X4.635Y-2.115
X4.655Y-2.215
X4.655Y-2.2648
X4.6552Y-2.0798
X4.67Y-1.79
X4.675Y-3.62
X4.675Y-3.725
X4.675Y-3.925
X4.7025Y-2.215
X4.7025Y-2.29
X4.71Y-3.335
X4.725Y-2.79
X4.725Y-2.845
X4.725Y-3.21
X4.7275Y-2.105
X4.7401Y-1.97
X4.7425Y-2.905
X4.75Y-3.085
X4.75Y-3.355
X4.755Y-2.82
X4.765Y-2.875
X4.765Y-3.05
X4.765Y-3.825
X4.7661Y-2.9339
X4.775Y-2.235
X4.785Y-2.18
X4.79Y-1.79
X4.7998Y-3.775
X4.8Y-1.935
X4.8Y-5.33
X4.8Y-5.41
X4.81Y-2.08
X4.81Y-2.4
X4.81Y-2.435
X4.815Y-2.475
X4.8158Y-3.675
X4.82Y-2.365
X4.84Y-2.56
X4.85Y-3.43
X4.8798Y-2.6538
X4.8992Y-2.195
X4.8992Y-2.23
X4.905Y-2.35
X4.91Y-2.5
X4.91Y-2.54
X4.915Y-2.655
X4.935Y-2.075
X4.935Y-2.11
X4.9454Y-2.7005
X4.955Y-3.315
X4.955Y-3.725
X4.955Y-2.655
X4.9583Y-4.0839
X4.96Y-2.59
X4.96Y-2.78
X4.96Y-2.825
X4.9602Y-2.7306
X4.966Y-4.0343
X4.97Y-3.9848
X4.99Y-2.335
X4.99Y-2.385
X4.99Y-2.42
X4.99Y-2.515
X4.9921Y-4.3321
X5.0Y-4.115
X5.0042Y-4.068
X5.04Y-4.115
X5.045Y-2.545
X5.045Y-2.58
X5.045Y-2.615
X5.045Y-2.65
X5.06Y-2.38
X5.06Y-2.695
X5.07Y-2.835
X5.07Y-2.795
X5.09Y-2.34
X5.09Y-3.62
X5.1Y-2.525
X5.1052Y-2.8359
X5.114Y-2.67
X5.12Y-3.675
X5.12Y-3.335
X5.1202Y-2.455
X5.155Y-2.7906
X5.155Y-3.25
X5.155Y-4.36
X5.1575Y-2.2482
X5.1575Y-2.2818
X5.1685Y-2.9106
X5.185Y-3.85
X5.1896Y-2.6697
X5.19Y-2.525
X5.195Y-2.38
X5.205Y-2.455
X5.21Y-2.91
X5.215Y-3.8
X5.225Y-2.365
X5.2305Y-2.7823
X5.2325Y-2.2482
X5.2325Y-2.2818
X5.235Y-3.75
X5.255Y-3.7
X5.2637Y-2.7774
X5.2706Y-2.9123
X5.2719Y-2.8126
X5.3042Y-2.9123
X5.3145Y-2.7792
X5.32Y-5.33
X5.32Y-5.41
X5.3245Y-2.4749
X5.3325Y-2.33
X5.3377Y-2.9122
X5.355Y-2.27
X5.358Y-2.4749
X5.3582Y-3.335
X5.36Y-3.0582
X5.36Y-3.0918
X5.365Y-2.805
X5.3725Y-2.9138
X5.3737Y-2.7715
X5.375Y-4.66
X5.3918Y-3.335
X5.3935Y-2.4748
X5.4Y-2.27
X5.405Y-2.3682
X5.405Y-2.4018
X5.405Y-2.905
X5.4182Y-3.265
X5.42Y-4.66
X5.425Y-2.25
X5.4271Y-2.4748
X5.4399Y-2.8018
X5.44Y-3.0532
X5.44Y-3.0868
X5.4518Y-3.265
X5.455Y-2.905
X5.46Y-2.205
X5.46Y-2.29
X5.46Y-4.66
X5.4708Y-2.7887
X5.4737Y-3.205
X5.49Y-2.905
X5.4925Y-2.25
X5.5081Y-2.3647
X5.5217Y-3.265
X5.525Y-2.815
X5.525Y-4.645
X5.525Y-2.905
X5.5319Y-2.3884
X5.545Y-3.0532
X5.545Y-3.0868
X5.5552Y-3.265
X5.56Y-2.905
X5.5602Y-3.9352
X5.575Y-3.205
X5.575Y-2.33
X5.59Y-2.8
X5.595Y-2.905
X5.5958Y-4.1248
X5.5958Y-4.315
X5.605Y-3.88
X5.6077Y-2.2485
X5.6077Y-2.2821
X5.6278Y-4.0432
X5.6278Y-4.0088
X5.635Y-2.74
X5.635Y-2.815
X5.66Y-2.765
X5.6613Y-3.96
X5.67Y-3.235
X5.675Y-4.645
X5.68Y-2.58
X5.68Y-2.71
X5.6835Y-2.2485
X5.6835Y-2.282
X5.6847Y-4.1755
X5.685Y-4.23
X5.7Y-3.055
X5.715Y-2.22
X5.725Y-4.23
X5.725Y-4.265
X5.725Y-4.3
X5.725Y-4.645
X5.745Y-2.2
X5.75Y-3.21
X5.75Y-3.055
X5.761Y-2.4519
X5.77Y-2.71
X5.77Y-2.7442
X5.7737Y-2.58
X5.78Y-2.15
X5.785Y-3.215
X5.79Y-2.375
X5.79Y-2.545
X5.79Y-4.65
X5.795Y-4.15
X5.795Y-4.095
X5.8Y-3.055
X5.8205Y-5.2895
X5.8241Y-3.2152
X5.8259Y-4.6491
X5.83Y-5.215
X5.83Y-5.25
X5.84Y-4.15
X5.845Y-3.0545
X5.85Y-4.8718
X5.87Y-4.07
X5.8725Y-2.66
X5.875Y-2.765
X5.875Y-2.805
X5.875Y-4.65
X5.88Y-5.215
X5.89Y-3.055
X5.895Y-3.645
X5.925Y-4.65
X5.93Y-3.3932
X5.93Y-3.4268
X5.94Y-2.745
X5.95Y-3.7
X5.95Y-3.75
X5.95Y-3.8
X5.955Y-5.0608
X5.9638Y-2.534
X5.965Y-2.495
X5.965Y-2.685
X5.975Y-4.65
X5.9879Y-5.0481
X5.99Y-2.555
X5.99Y-2.625
X5.99Y-5.0095
X5.995Y-4.9
X5.995Y-5.225
X6.0Y-1.7417
X6.0Y-1.7752
X6.0Y-1.8598
X6.0Y-1.8934
X6.0Y-1.9779
X6.0Y-2.0115
X6.0Y-2.22
X6.0Y-2.295
X6.0Y-3.7
X6.0Y-3.75
X6.0Y-3.8
X6.0Y-3.9
X6.005Y-3.2932
X6.005Y-3.3268
X6.045Y-3.3432
X6.045Y-3.3768
X6.045Y-5.045
X6.05Y-3.7
X6.05Y-3.75
X6.05Y-3.8
X6.05Y-3.9
X6.0528Y-5.1605
X6.075Y-4.645
X6.0957Y-5.155
X6.1Y-3.7
X6.1Y-3.75
X6.1Y-3.8
X6.1Y-3.9
X6.125Y-3.62
X6.127Y-5.053
X6.1392Y-2.7409
X6.14Y-2.925
X6.15Y-3.675
X6.15Y-3.725
X6.15Y-3.8
X6.15Y-3.9
X6.155Y-3.85
X6.16Y-4.315
X6.16Y-4.3542
X6.175Y-2.705
X6.175Y-2.925
X6.24Y-2.07
X6.253Y-3.3273
X6.26Y-5.235
X6.27Y-2.1
X6.3Y-3.775
X6.3Y-3.85
X6.3Y-3.9
X6.3Y-3.95
X6.3Y-4.0
X6.3Y-4.05
X6.3Y-4.1
X6.3094Y-5.3047
X6.32Y-3.72
X6.3201Y-3.685
X6.3214Y-3.6513
X6.325Y-3.45
X6.34Y-5.235
X6.3444Y-5.3047
X6.3796Y-5.3045
X6.415Y-5.305
X6.435Y-5.06
X6.435Y-5.21
X6.436Y-3.88
X6.45Y-2.095
X6.455Y-4.56
X6.4594Y-4.0801
X6.46Y-3.625
X6.465Y-5.26
X6.47Y-4.71
X6.4723Y-4.1546
X6.475Y-5.38
X6.485Y-4.0553
X6.4866Y-4.0218
X6.495Y-4.775
X6.5Y-5.01
X6.5Y-5.11
X6.5Y-5.16
X6.5Y-5.21
X6.5Y-5.26
X6.5Y-5.31
X6.51Y-4.3542
X6.5133Y-4.1292
X6.5165Y-3.4585
X6.5174Y-4.2191
X6.53Y-5.135
X6.53Y-4.7612
X6.5383Y-2.9633
X6.5383Y-4.7287
X6.5411Y-4.1954
X6.5412Y-3.4838
X6.5478Y-3.025
X6.5645Y-4.3355
X6.566Y-3.425
X6.5742Y-2.9991
X6.575Y-4.575
X6.5908Y-3.4
X6.595Y-4.96
X6.595Y-5.11
X6.599Y-5.31
X6.6162Y-3.3762
X6.62Y-4.305
X6.6205Y-4.2502
X6.6236Y-5.2652
X6.625Y-2.3
X6.625Y-4.675
X6.6428Y-3.3997
X6.645Y-2.07
X6.6453Y-3.86
X6.65Y-4.645
X6.6502Y-2.3651
X6.6558Y-2.415
X6.6599Y-5.2652
X6.66Y-2.875
X6.67Y-5.435
X6.675Y-4.6
X6.675Y-5.325
X6.68Y-3.9
X6.68Y-4.0
X6.685Y-2.135
X6.685Y-2.175
X6.685Y-2.215
X6.685Y-2.26
X6.685Y-2.3
X6.685Y-2.34
X6.685Y-2.39
X6.686Y-4.05
X6.69Y-2.85
X6.7Y-4.985
X6.7Y-5.265
X6.7201Y-2.8252
X6.73Y-3.505
X6.73Y-5.295
X6.7309Y-2.7277
X6.7423Y-5.2638
X6.745Y-2.08
X6.755Y-3.95
X6.755Y-5.0
X6.755Y-4.965
X6.7676Y-4.2759
X6.77Y-2.73
X6.77Y-4.225
X6.77Y-4.735
X6.775Y-2.1014
X6.775Y-2.14
X6.775Y-2.18
X6.78Y-5.45
X6.795Y-2.255
X6.805Y-3.52
X6.805Y-4.7348
X6.815Y-5.305
X6.8186Y-4.335
X6.83Y-3.585
X6.83Y-3.665
X6.835Y-4.965
X6.845Y-3.75
X6.8456Y-4.1706
X6.85Y-3.555
X6.86Y-4.74
X6.865Y-2.025
X6.885Y-3.6
X6.89Y-3.67
X6.89Y-5.3948
X6.91Y-2.595
X6.92Y-3.64
X6.925Y-2.565
X6.925Y-4.145
X6.925Y-4.72
X6.955Y-2.015
X6.9646Y-3.6696
X6.965Y-2.565
X6.9692Y-5.3941
X6.985Y-2.595
X6.985Y-2.665
X7.0036Y-5.395
X7.0048Y-4.8298
X7.005Y-5.1
X7.005Y-4.64
X7.005Y-5.43
X7.025Y-3.1
X7.025Y-3.25
X7.035Y-4.215
X7.035Y-4.29
X7.04Y-4.8088
X7.04Y-5.15
X7.045Y-2.635
X7.045Y-2.765
X7.05Y-4.385
X7.0545Y-4.3455
X7.055Y-5.395
X7.065Y-2.015
X7.07Y-2.9
X7.075Y-3.57
X7.0854Y-4.3897
X7.0866Y-4.4235
X7.0871Y-4.8348
X7.095Y-2.04
X7.095Y-2.115
X7.095Y-5.385
X7.0991Y-2.6641
X7.1Y-2.785
X7.105Y-5.2
X7.11Y-2.9
X7.1198Y-4.4285
X7.12Y-5.53
X7.13Y-2.115
X7.13Y-5.05
X7.13Y-4.875
X7.1398Y-4.4554
X7.14Y-5.47
X7.165Y-5.505
X7.165Y-5.56
X7.165Y-5.5955
X7.1658Y-3.945
X7.18Y-2.655
X7.18Y-4.93
X7.18Y-2.5
X7.194Y-4.4648
X7.1958Y-4.2
X7.205Y-2.43
X7.205Y-4.81
X7.205Y-5.0
X7.21Y-2.115
X7.215Y-2.55
X7.22Y-4.486
X7.22Y-4.3
X7.22Y-4.7
X7.2214Y-4.0
X7.2225Y-4.5195
X7.23Y-2.9
X7.235Y-3.5
X7.235Y-3.6
X7.235Y-3.805
X7.235Y-4.895
X7.24Y-2.08
X7.25Y-2.16
X7.255Y-2.8
X7.265Y-4.87
X7.27Y-2.105
X7.27Y-2.35
X7.27Y-2.4
X7.285Y-2.3
X7.2902Y-4.44
X7.3Y-3.255
X7.305Y-3.45
X7.305Y-3.765
X7.305Y-4.1
X7.315Y-4.4
X7.315Y-4.65
X7.325Y-2.2
X7.33Y-3.18
X7.33Y-3.22
X7.33Y-3.7
X7.33Y-3.8
X7.3436Y-3.116
X7.375Y-3.095
X7.375Y-5.28
X7.3975Y-1.7675
X7.46Y-3.0563
X7.46Y-2.45
X7.46Y-3.0228
X7.4905Y-3.0702
X7.495Y-3.105
X7.5185Y-2.9748
X7.53Y-4.6
X7.53Y-4.8
X7.55Y-2.2
X7.55Y-2.7
X7.55Y-2.6
X7.555Y-2.99
X7.555Y-2.95
X7.57Y-3.7
X7.57Y-3.6
X7.57Y-3.8
X7.57Y-3.9
X7.58Y-3.025
X4.4602Y-2.5
X4.4897Y-2.5
X4.535Y-2.4252
X4.535Y-2.4547
X4.535Y-2.5453
X4.535Y-2.5748
X4.5803Y-2.5
X4.6098Y-2.5
T2
X3.04Y-1.8
X3.04Y-1.9
X3.04Y-2.05
X3.04Y-2.15
X3.04Y-2.25
X3.04Y-2.35
X3.04Y-2.45
X3.04Y-2.55
X3.04Y-2.65
X3.04Y-2.75
X3.04Y-2.85
X3.04Y-2.95
X3.04Y-3.05
X3.04Y-3.15
X3.04Y-3.25
X3.04Y-3.35
X3.04Y-3.45
X3.04Y-3.55
X3.04Y-3.65
X3.04Y-3.75
X3.04Y-3.85
X3.04Y-3.95
X3.04Y-4.05
X3.04Y-4.15
X3.04Y-4.25
X3.04Y-4.35
X3.04Y-4.45
X3.04Y-4.55
X3.04Y-4.65
X3.04Y-4.75
X3.075Y-4.825
X3.075Y-4.875
X3.1Y-1.8
X3.1Y-1.9
X3.1Y-4.1
X3.1Y-4.2
X3.125Y-3.84
X3.125Y-3.94
X3.125Y-4.74
X3.125Y-4.825
X3.125Y-5.375
X3.15Y-1.85
X3.15Y-4.05
X3.15Y-4.15
X3.17Y-4.91
X3.185Y-5.375
X3.19Y-4.74
X3.2Y-1.8
X3.2Y-1.9
X3.2Y-4.1
X3.2Y-4.2
X3.2Y-4.825
X3.23Y-3.8
X3.23Y-3.9
X3.25Y-1.85
X3.25Y-4.05
X3.25Y-4.15
X3.265Y-5.44
X3.27Y-4.7
X3.27Y-4.74
X3.275Y-4.845
X3.3Y-1.54
X3.3Y-1.6
X3.3Y-1.7
X3.3Y-1.8
X3.3Y-1.9
X3.305Y-5.405
X3.305Y-5.5
X3.305Y-5.6
X3.305Y-5.66
X3.31Y-3.76
X3.31Y-3.84
X3.35Y-1.85
X3.37Y-4.74
X3.375Y-3.86
X3.375Y-3.945
X3.375Y-5.155
X3.4Y-1.54
X3.4Y-1.8
X3.4Y-1.9
X3.4Y-4.05
X3.4Y-4.15
X3.4Y-5.66
X3.425Y-5.405
X3.435Y-4.74
X3.44Y-3.76
X3.44Y-3.84
X3.44Y-5.09
X3.45Y-4.1
X3.45Y-4.2
X3.48Y-3.8
X3.495Y-4.835
X3.5Y-1.54
X3.5Y-4.05
X3.5Y-4.15
X3.5Y-5.66
X3.505Y-5.155
X3.535Y-4.795
X3.55Y-1.75
X3.55Y-3.5
X3.55Y-3.6
X3.55Y-3.7
X3.55Y-3.8
X3.55Y-3.9
X3.55Y-4.0
X3.55Y-4.1
X3.55Y-4.2
X3.555Y-4.885
X3.555Y-5.2
X3.6Y-1.54
X3.6Y-1.8
X3.6Y-2.4
X3.6Y-3.45
X3.6Y-3.55
X3.6Y-3.65
X3.6Y-3.75
X3.6Y-3.85
X3.6Y-3.95
X3.6Y-4.05
X3.6Y-4.15
X3.6Y-5.66
X3.625Y-4.79
X3.65Y-3.5
X3.65Y-3.6
X3.65Y-3.7
X3.65Y-3.8
X3.65Y-3.9
X3.65Y-4.0
X3.65Y-4.1
X3.65Y-4.2
X3.655Y-2.425
X3.7Y-1.54
X3.7Y-5.66
X3.705Y-4.32
X3.71Y-3.4
X3.71Y-3.45
X3.71Y-3.5
X3.71Y-3.55
X3.745Y-2.43
X3.75Y-2.125
X3.8Y-1.54
X3.8Y-1.75
X3.8Y-5.66
X3.82Y-5.38
X3.85Y-2.125
X3.865Y-5.34
X3.88Y-3.4
X3.88Y-3.45
X3.89Y-4.54
X3.895Y-4.885
X3.895Y-4.945
X3.9Y-1.54
X3.9Y-5.66
X3.935Y-4.54
X3.94Y-5.065
X3.94Y-5.17
X3.955Y-2.4246
X3.985Y-1.75
X3.985Y-3.4
X4.0Y-1.54
X4.0Y-5.66
X4.02Y-4.65
X4.025Y-3.045
X4.025Y-3.105
X4.025Y-3.21
X4.025Y-3.4
X4.025Y-4.54
X4.045Y-2.43
X4.05Y-2.125
X4.05Y-4.885
X4.05Y-4.945
X4.055Y-4.995
X4.055Y-5.335
X4.0725Y-3.2097
X4.075Y-3.045
X4.075Y-3.105
X4.075Y-3.635
X4.075Y-4.54
X4.075Y-5.66
X4.08Y-3.58
X4.08Y-4.65
X4.1Y-1.54
X4.12Y-3.58
X4.12Y-2.17
X4.125Y-4.66
X4.13Y-5.545
X4.15Y-3.635
X4.175Y-4.0085
X4.175Y-4.66
X4.175Y-4.84
X4.18Y-5.21
X4.19Y-5.0
X4.2Y-1.54
X4.2Y-1.75
X4.2Y-4.81
X4.205Y-4.885
X4.225Y-3.635
X4.225Y-4.66
X4.225Y-4.84
X4.245Y-1.925
X4.275Y-4.0085
X4.275Y-4.66
X4.2838Y-2.1262
X4.295Y-1.925
X4.295Y-2.025
X4.3Y-1.54
X4.3Y-5.585
X4.3Y-5.66
X4.31Y-5.365
X4.315Y-4.95
X4.325Y-4.66
X4.325Y-5.0
X4.33Y-5.105
X4.33Y-5.165
X4.335Y-5.335
X4.345Y-1.925
X4.345Y-2.025
X4.35Y-1.7
X4.375Y-4.0085
X4.375Y-4.66
X4.395Y-1.925
X4.4Y-1.75
X4.4Y-5.585
X4.4Y-5.66
X4.425Y-4.66
X4.45Y-1.6
X4.45Y-1.7
X4.45Y-4.895
X4.45Y-4.935
X4.465Y-5.485
X4.475Y-4.0085
X4.475Y-4.66
X4.475Y-5.23
X4.495Y-5.385
X4.495Y-5.45
X4.5Y-1.54
X4.5Y-1.65
X4.5Y-1.75
X4.5Y-5.585
X4.5Y-5.66
X4.505Y-4.965
X4.525Y-4.66
X4.525Y-5.295
X4.525Y-5.335
X4.55Y-1.6
X4.55Y-1.7
X4.575Y-4.0085
X4.575Y-4.3
X4.575Y-4.66
X4.595Y-5.23
X4.6Y-1.54
X4.6Y-1.65
X4.6Y-1.75
X4.625Y-4.66
X4.635Y-5.035
X4.65Y-1.6
X4.65Y-1.7
X4.665Y-5.23
X4.675Y-4.0085
X4.675Y-4.3
X4.675Y-4.66
X4.675Y-5.29
X4.695Y-5.125
X4.7Y-1.54
X4.7Y-1.65
X4.7Y-1.75
X4.7Y-5.66
X4.71Y-5.59
X4.7238Y-4.9215
X4.725Y-4.66
X4.745Y-2.685
X4.75Y-1.6
X4.75Y-1.7
X4.76Y-2.755
X4.775Y-4.0085
X4.775Y-4.3
X4.775Y-4.66
X4.8Y-1.54
X4.8Y-1.65
X4.8Y-1.75
X4.8Y-5.66
X4.825Y-4.66
X4.845Y-5.12
X4.845Y-5.37
X4.85Y-1.6
X4.85Y-1.7
X4.875Y-4.66
X4.9Y-1.75
X4.9Y-5.66
X4.92Y-4.65
X4.95Y-1.7
X4.95Y-2.36
X4.95Y-2.45
X4.98Y-4.65
X4.995Y-5.085
X5.0Y-1.54
X5.0Y-1.6
X5.0Y-1.675
X5.0Y-1.75
X5.0Y-1.825
X5.0Y-5.66
X5.005Y-2.105
X5.005Y-2.145
X5.045Y-2.145
X5.05Y-2.005
X5.065Y-5.005
X5.085Y-2.145
X5.095Y-2.005
X5.1Y-5.66
X5.115Y-4.66
X5.125Y-2.105
X5.125Y-2.145
X5.125Y-3.045
X5.125Y-3.105
X5.125Y-3.21
X5.125Y-4.54
X5.14Y-1.96
X5.14Y-2.005
X5.14Y-5.085
X5.175Y-3.045
X5.175Y-3.105
X5.175Y-3.21
X5.175Y-4.54
X5.185Y-4.66
X5.19Y-5.0487
X5.195Y-2.18
X5.2Y-5.66
X5.225Y-1.875
X5.225Y-3.045
X5.225Y-3.105
X5.225Y-3.21
X5.225Y-4.54
X5.225Y-4.66
X5.23Y-5.59
X5.24Y-2.1625
X5.27Y-5.235
X5.275Y-1.925
X5.275Y-4.54
X5.275Y-4.66
X5.28Y-2.1625
X5.29Y-5.105
X5.3Y-5.66
X5.325Y-1.575
X5.325Y-1.875
X5.335Y-1.725
X5.335Y-1.8
X5.365Y-5.37
X5.375Y-1.925
X5.4Y-3.475
X5.4Y-3.8
X5.4Y-5.66
X5.425Y-1.575
X5.425Y-1.725
X5.425Y-1.8
X5.425Y-1.875
X5.435Y-5.085
X5.475Y-1.925
X5.49Y-3.475
X5.49Y-3.8
X5.5Y-5.66
X5.505Y-5.005
X5.525Y-1.575
X5.525Y-1.725
X5.525Y-1.8
X5.525Y-1.875
X5.525Y-5.105
X5.575Y-1.925
X5.59Y-2.37
X5.59Y-2.42
X5.6Y-5.66
X5.625Y-1.575
X5.625Y-1.875
X5.675Y-1.925
X5.7Y-5.66
X5.71Y-2.0
X5.755Y-5.575
X5.775Y-2.0
X5.8Y-5.66
X5.825Y-2.585
X5.825Y-2.72
X5.8556Y-4.9089
X5.875Y-1.54
X5.875Y-1.625
X5.875Y-1.7
X5.875Y-1.8175
X5.875Y-1.935
X5.875Y-2.055
X5.875Y-2.1711
X5.875Y-2.2125
X5.875Y-2.25
X5.9Y-5.66
X5.945Y-2.285
X5.95Y-1.54
X5.95Y-1.625
X5.95Y-4.0
X5.95Y-4.1
X5.95Y-4.2
X5.95Y-4.3
X5.985Y-2.445
X5.9972Y-5.175
X6.0Y-4.05
X6.0Y-4.15
X6.0Y-4.25
X6.0Y-5.515
X6.0Y-5.66
X6.0253Y-4.93
X6.05Y-1.54
X6.05Y-1.625
X6.05Y-3.525
X6.05Y-4.0
X6.05Y-4.1
X6.05Y-4.2
X6.0664Y-4.905
X6.0667Y-4.945
X6.09Y-5.515
X6.1Y-3.475
X6.1Y-3.525
X6.1Y-4.05
X6.1Y-4.15
X6.1Y-4.25
X6.1Y-5.66
X6.145Y-4.58
X6.145Y-4.63
X6.15Y-1.54
X6.175Y-3.175
X6.175Y-5.515
X6.2Y-5.66
X6.205Y-2.34
X6.205Y-2.395
X6.225Y-2.445
X6.225Y-2.495
X6.225Y-2.545
X6.225Y-2.595
X6.225Y-2.64
X6.225Y-2.685
X6.25Y-1.54
X6.25Y-1.625
X6.275Y-2.445
X6.275Y-2.495
X6.275Y-2.545
X6.275Y-2.595
X6.275Y-2.64
X6.275Y-2.685
X6.3Y-5.66
X6.31Y-5.025
X6.325Y-2.55
X6.325Y-2.595
X6.325Y-2.64
X6.3265Y-3.3937
X6.34Y-5.125
X6.35Y-1.54
X6.35Y-1.625
X6.35Y-1.7
X6.35Y-1.775
X6.35Y-4.97
X6.36Y-3.365
X6.4Y-3.365
X6.4Y-5.66
X6.425Y-2.33
X6.425Y-4.78
X6.43Y-5.42
X6.435Y-2.0
X6.44Y-2.965
X6.44Y-3.005
X6.45Y-1.54
X6.45Y-1.7
X6.45Y-1.775
X6.455Y-4.75
X6.46Y-2.69
X6.495Y-2.0
X6.5Y-2.395
X6.5Y-5.42
X6.5Y-5.66
X6.55Y-1.54
X6.55Y-1.7
X6.55Y-1.775
X6.55Y-2.6
X6.55Y-2.65
X6.56Y-2.415
X6.56Y-2.455
X6.565Y-1.62
X6.565Y-2.0
X6.565Y-2.08
X6.6Y-5.66
X6.65Y-1.54
X6.72Y-2.59
X6.725Y-3.32
X6.75Y-1.54
X6.76Y-2.59
X6.85Y-1.54
X6.85Y-1.625
X6.95Y-1.54
X6.95Y-1.625
X6.95Y-1.7
X6.95Y-1.775
X6.955Y-3.94
X6.955Y-3.985
X6.955Y-4.065
X6.9587Y-3.8339
X7.05Y-1.54
X7.05Y-1.7
X7.05Y-1.775
X7.075Y-4.69
X7.125Y-4.69
X7.135Y-3.205
X7.135Y-3.245
X7.135Y-3.565
X7.135Y-3.615
X7.15Y-1.54
X7.15Y-1.7
X7.15Y-1.775
X7.175Y-1.62
X7.175Y-3.205
X7.175Y-3.245
X7.175Y-3.32
X7.2Y-5.66
X7.235Y-5.43
X7.25Y-1.54
X7.275Y-5.66
X7.29Y-4.925
X7.305Y-3.4
X7.35Y-1.54
X7.35Y-5.4
X7.35Y-5.45
X7.35Y-5.525
X7.35Y-5.6
X7.35Y-5.66
X7.36Y-2.06
X7.36Y-2.14
X7.42Y-1.96
X7.42Y-2.04
X7.42Y-3.26
X7.42Y-3.34
X7.45Y-1.54
X7.45Y-1.875
X7.45Y-5.66
X7.4823Y-1.6077
X7.4823Y-1.6877
X7.4823Y-5.5077
X7.4823Y-5.5927
X7.495Y-2.06
X7.495Y-2.14
X7.5Y-5.3
X7.5Y-5.4
X7.525Y-1.54
X7.525Y-1.75
X7.525Y-1.8
X7.525Y-1.875
X7.525Y-5.66
X7.5325Y-3.399
X7.535Y-2.1
X7.55Y-5.35
X7.6Y-1.8
X7.6Y-1.875
X7.6Y-5.3
X7.6Y-5.4
X7.65Y-5.35
X7.675Y-1.96
X7.675Y-2.06
X7.675Y-2.85
X7.675Y-2.95
X7.675Y-3.05
X7.675Y-3.15
X7.675Y-3.225
X7.7Y-1.8
X7.7Y-1.875
X7.7Y-5.3
X7.7Y-5.35
X7.7Y-5.4
X7.71Y-3.26
X7.71Y-3.36
X7.75Y-3.36
X7.76Y-1.8
X7.76Y-1.875
X7.76Y-1.95
X7.76Y-2.05
X7.76Y-2.15
X7.76Y-2.25
X7.76Y-2.35
X7.76Y-2.45
X7.76Y-2.55
X7.76Y-2.65
X7.76Y-2.75
X7.76Y-2.85
X7.76Y-3.45
X7.76Y-3.55
X7.76Y-3.65
X7.76Y-3.75
X7.76Y-3.85
X7.76Y-3.95
X7.76Y-4.05
X7.76Y-4.15
X7.76Y-4.25
X7.76Y-4.35
X7.76Y-4.45
X7.76Y-4.55
X7.76Y-4.65
X7.76Y-4.75
X7.76Y-4.85
X7.76Y-4.95
X7.76Y-5.05
X7.76Y-5.15
X7.76Y-5.25
X7.76Y-5.3
X7.76Y-5.35
X7.76Y-5.4
X6.8996Y-2.2546
X6.8996Y-2.3254
X6.9704Y-2.2546
X6.9704Y-2.3254
T4
X3.8603Y-5.5309
X3.9395Y-5.5308
T5
X3.3872Y-1.65
X3.525Y-1.65
X3.6628Y-1.65
X3.05Y-4.975
X3.05Y-5.075
X3.05Y-5.175
X3.05Y-5.275
X3.05Y-5.375
X5.004Y-5.2228
X5.004Y-5.3015
X5.004Y-5.3803
X5.004Y-5.459
X5.525Y-5.2228
X5.525Y-5.3015
X5.525Y-5.3803
X5.525Y-5.459
X3.9122Y-1.65
X4.05Y-1.65
X4.1878Y-1.65
T6
X5.185Y-1.57
X5.185Y-1.65
X5.225Y-2.0
X5.275Y-2.1
X5.325Y-2.0
X5.375Y-2.1
X5.425Y-2.0
X5.475Y-2.1
X5.525Y-2.0
X5.575Y-2.1
X5.625Y-2.0
X5.675Y-2.1
X5.715Y-1.57
X5.715Y-1.65
X6.935Y-2.29
T7
X4.535Y-2.5
X5.425Y-2.576
T8
X4.8918Y-5.2031
X4.8918Y-5.4787
X5.1162Y-5.2031
X5.1162Y-5.4787
X5.4128Y-5.2031
X5.4128Y-5.4787
X5.6372Y-5.2031
X5.6372Y-5.4787
T2
G00X3.4457Y-5.4939
M15
G01X3.5284Y-5.4939
M16
G05
G00X3.4457Y-5.2577
M15
G01X3.5402Y-5.2577
M16
G05
G00X3.6682Y-5.4291
M15
G01X3.6682Y-5.3425
M16
G05
T3
G00X4.3626Y-1.5732
M15
G01X4.3626Y-1.6126
M16
G05
G00X4.3626Y-1.8035
M15
G01X4.3626Y-1.8587
M16
G05
G00X4.9374Y-1.5732
M15
G01X4.9374Y-1.6126
M16
G05
G00X4.9374Y-1.8035
M15
G01X4.9374Y-1.8587
M16
G05
T5
G00X5.139Y-1.8602
M15
G01X5.139Y-1.8917
M16
G05
G00X5.761Y-1.8602
M15
G01X5.761Y-1.8917
M16
G05
T0
M30
