G04 #@! TF.GenerationSoftware,KiCad,Pcbnew,5.1.0-rc2-unknown-036be7d~80~ubuntu16.04.1*
G04 #@! TF.CreationDate,2023-04-10T13:57:59+03:00*
G04 #@! TF.ProjectId,STMP15x-BASE-SOM-EVB_Rev_B,53544d50-3135-4782-9d42-4153452d534f,B*
G04 #@! TF.SameCoordinates,Original*
G04 #@! TF.FileFunction,Soldermask,Bot*
G04 #@! TF.FilePolarity,Negative*
%FSLAX46Y46*%
G04 Gerber Fmt 4.6, Leading zero omitted, Abs format (unit mm)*
G04 Created by KiCad (PCBNEW 5.1.0-rc2-unknown-036be7d~80~ubuntu16.04.1) date 2023-04-10 13:57:59*
%MOMM*%
%LPD*%
G04 APERTURE LIST*
%ADD10C,1.101600*%
%ADD11C,0.801600*%
%ADD12C,1.601600*%
%ADD13C,2.301600*%
%ADD14R,1.501600X1.501600*%
%ADD15C,1.501600*%
%ADD16O,1.601600X3.801600*%
%ADD17O,3.701600X1.601600*%
%ADD18O,4.001600X1.601600*%
%ADD19C,1.879600*%
%ADD20R,1.879600X1.879600*%
%ADD21C,2.641600*%
%ADD22R,1.701600X1.701600*%
%ADD23C,3.401600*%
%ADD24O,2.101600X2.901600*%
%ADD25C,1.751600*%
%ADD26R,1.524000X1.524000*%
%ADD27C,1.801600*%
%ADD28C,0.701600*%
%ADD29O,1.401600X2.401600*%
%ADD30O,1.401600X2.801600*%
%ADD31C,1.254000*%
%ADD32C,1.301600*%
%ADD33C,3.401601*%
%ADD34C,1.701600*%
%ADD35C,0.203200*%
G04 APERTURE END LIST*
D10*
X158623000Y-140157200D03*
X150622000Y-140157200D03*
D11*
X176530000Y-102235000D03*
X176530000Y-98425000D03*
D12*
X140335000Y-132658600D03*
X140335000Y-134658600D03*
X140335000Y-136658600D03*
X140335000Y-138658600D03*
D13*
X143185000Y-139158600D03*
X137485000Y-139158600D03*
X143185000Y-132158600D03*
X137485000Y-132158600D03*
D12*
X127101600Y-132658601D03*
X127101600Y-134658601D03*
X127101600Y-136658601D03*
X127101600Y-138658601D03*
D13*
X129951600Y-139158601D03*
X124251600Y-139158601D03*
X129951600Y-132158601D03*
X124251600Y-132158601D03*
D14*
X98051620Y-140484860D03*
D15*
X100063300Y-140482320D03*
D16*
X93171999Y-136800000D03*
D17*
X88571999Y-139546000D03*
D18*
X88721999Y-133546000D03*
D19*
X77470000Y-136525000D03*
D20*
X77470000Y-133985000D03*
D19*
X77470000Y-131445000D03*
X77470000Y-128905000D03*
D20*
X77470000Y-126365000D03*
D21*
X93035000Y-41910000D03*
X86035000Y-41910000D03*
X89535000Y-41910000D03*
X106370000Y-41910000D03*
X99370000Y-41910000D03*
X102870000Y-41910000D03*
D22*
X115189000Y-63500000D03*
D23*
X144145000Y-44450000D03*
X132715000Y-44450000D03*
D24*
X146330000Y-47650000D03*
X130530000Y-47650000D03*
D25*
X145161000Y-39878000D03*
X145161000Y-41910000D03*
X131699000Y-39878000D03*
X131699000Y-41910000D03*
X144145000Y-53340000D03*
X142875000Y-50800000D03*
X141605000Y-53340000D03*
X140335000Y-50800000D03*
X139065000Y-53340000D03*
X137795000Y-50800000D03*
X136525000Y-53340000D03*
X135255000Y-50800000D03*
X133985000Y-53340000D03*
X132715000Y-50800000D03*
D26*
X137795000Y-65430400D03*
D27*
X163830000Y-47275000D03*
X163830000Y-41275000D03*
X179070000Y-47275000D03*
X179070000Y-41275000D03*
D28*
X170730000Y-87225000D03*
X182330000Y-87225000D03*
D11*
X160020000Y-109855000D03*
X160020000Y-86995000D03*
D29*
X125410000Y-40460000D03*
X110810000Y-40460000D03*
D30*
X110810000Y-46510000D03*
X125410000Y-46510000D03*
D31*
X77470000Y-143510000D03*
X77470000Y-39370000D03*
X196850000Y-39370000D03*
D32*
X191770000Y-85090000D03*
X191770000Y-130810000D03*
X191770000Y-52070000D03*
X191770000Y-72390000D03*
D11*
X97790000Y-109855000D03*
X97790000Y-86995000D03*
X102870000Y-118745000D03*
X125730000Y-118745000D03*
X153670000Y-118745000D03*
X130810000Y-118745000D03*
X130810000Y-78105000D03*
X153670000Y-78105000D03*
X102870000Y-78105000D03*
X125730000Y-78105000D03*
D32*
X82550000Y-52070000D03*
X82550000Y-97790000D03*
D33*
X96520000Y-118745000D03*
X160020000Y-118745000D03*
X160020000Y-78105000D03*
X96520000Y-78105000D03*
X80010000Y-140970000D03*
X194310000Y-140970000D03*
X194310000Y-41910000D03*
X80010000Y-41910000D03*
D34*
X176149000Y-58166000D03*
D32*
X82550000Y-118110000D03*
X82550000Y-110490000D03*
D35*
G36*
X198018400Y-82448400D02*
G01*
X196570600Y-82448400D01*
X196570600Y-75031600D01*
X198018400Y-75031600D01*
X198018400Y-82448400D01*
X198018400Y-82448400D01*
G37*
X198018400Y-82448400D02*
X196570600Y-82448400D01*
X196570600Y-75031600D01*
X198018400Y-75031600D01*
X198018400Y-82448400D01*
M02*
