G04 #@! TF.GenerationSoftware,KiCad,Pcbnew,5.1.0-rc2-unknown-036be7d~80~ubuntu16.04.1*
G04 #@! TF.CreationDate,2023-04-10T13:57:59+03:00*
G04 #@! TF.ProjectId,STMP15x-BASE-SOM-EVB_Rev_B,53544d50-3135-4782-9d42-4153452d534f,B*
G04 #@! TF.SameCoordinates,Original*
G04 #@! TF.FileFunction,Soldermask,Top*
G04 #@! TF.FilePolarity,Negative*
%FSLAX46Y46*%
G04 Gerber Fmt 4.6, Leading zero omitted, Abs format (unit mm)*
G04 Created by KiCad (PCBNEW 5.1.0-rc2-unknown-036be7d~80~ubuntu16.04.1) date 2023-04-10 13:57:59*
%MOMM*%
%LPD*%
G04 APERTURE LIST*
%ADD10C,0.100000*%
%ADD11R,0.700000X1.100000*%
%ADD12R,1.400000X1.600000*%
%ADD13R,1.800000X1.600000*%
%ADD14R,1.400000X2.400000*%
%ADD15C,1.101600*%
%ADD16R,0.861600X1.371600*%
%ADD17C,0.801600*%
%ADD18R,2.501600X0.861600*%
%ADD19R,0.751600X1.151600*%
%ADD20R,0.351600X1.301600*%
%ADD21R,2.601600X4.201600*%
%ADD22C,1.601600*%
%ADD23C,2.301600*%
%ADD24R,0.601600X2.351600*%
%ADD25R,1.501600X1.501600*%
%ADD26C,1.501600*%
%ADD27O,1.601600X3.801600*%
%ADD28O,3.701600X1.601600*%
%ADD29O,4.001600X1.601600*%
%ADD30C,1.879600*%
%ADD31R,1.879600X1.879600*%
%ADD32C,2.641600*%
%ADD33C,0.601600*%
%ADD34R,0.351600X1.001600*%
%ADD35R,1.001600X0.351600*%
%ADD36R,1.701600X1.701600*%
%ADD37R,4.601600X4.601600*%
%ADD38C,3.401600*%
%ADD39O,2.101600X2.901600*%
%ADD40C,1.751600*%
%ADD41R,1.751600X0.701600*%
%ADD42R,0.601600X0.651600*%
%ADD43R,1.524000X1.524000*%
%ADD44R,4.101600X4.101600*%
%ADD45R,0.751600X0.351600*%
%ADD46R,0.351600X0.751600*%
%ADD47C,1.801600*%
%ADD48R,3.101599X2.201600*%
%ADD49R,3.101599X2.601600*%
%ADD50R,1.371600X1.625600*%
%ADD51R,0.351600X1.701600*%
%ADD52C,0.701600*%
%ADD53R,1.901600X1.901600*%
%ADD54R,1.901600X0.801600*%
%ADD55R,1.117600X1.117600*%
%ADD56R,0.426600X0.726600*%
%ADD57R,0.351600X0.726600*%
%ADD58R,0.726600X0.426600*%
%ADD59R,0.726600X0.351600*%
%ADD60R,1.625600X1.371600*%
%ADD61R,1.301600X0.651600*%
%ADD62R,0.651600X0.601600*%
%ADD63O,1.401600X2.401600*%
%ADD64R,0.350000X1.700000*%
%ADD65O,1.401600X2.801600*%
%ADD66R,0.863600X1.117600*%
%ADD67R,0.609600X0.863600*%
%ADD68R,0.863600X0.609600*%
%ADD69R,2.101600X1.801600*%
%ADD70R,1.101600X1.501600*%
%ADD71R,0.901600X0.901600*%
%ADD72R,0.301600X0.776600*%
%ADD73R,0.401600X0.876600*%
%ADD74R,0.701600X2.301600*%
%ADD75R,2.336800X1.320800*%
%ADD76R,2.301600X3.701600*%
%ADD77C,1.254000*%
%ADD78R,1.879600X1.117600*%
%ADD79R,2.387600X1.879600*%
%ADD80R,1.501600X1.101600*%
%ADD81R,4.351600X1.101600*%
%ADD82C,1.301600*%
%ADD83R,2.801600X1.901600*%
%ADD84R,1.901600X1.701600*%
%ADD85R,0.801600X1.901600*%
%ADD86R,6.101600X3.301600*%
%ADD87C,3.401601*%
%ADD88R,1.501600X1.301600*%
%ADD89R,1.625600X1.879600*%
%ADD90R,1.879600X1.625600*%
%ADD91R,0.609600X1.117600*%
%ADD92R,0.651600X1.301600*%
%ADD93R,2.801600X2.801600*%
%ADD94C,0.991600*%
%ADD95C,1.701600*%
%ADD96R,1.001600X0.301600*%
%ADD97R,0.301600X1.001600*%
%ADD98C,0.203200*%
G04 APERTURE END LIST*
D10*
G36*
X115660000Y-136451000D02*
G01*
X115660000Y-138601000D01*
X117260000Y-138601000D01*
X117260000Y-136451000D01*
X115660000Y-136451000D01*
G37*
G36*
X115660000Y-142051000D02*
G01*
X115660000Y-144201000D01*
X117260000Y-144201000D01*
X117260000Y-142051000D01*
X115660000Y-142051000D01*
G37*
G36*
X106260000Y-136451000D02*
G01*
X106260000Y-138601000D01*
X107860000Y-138601000D01*
X107860000Y-136451000D01*
X106260000Y-136451000D01*
G37*
G36*
X106260000Y-142051000D02*
G01*
X106260000Y-144201000D01*
X107860000Y-144201000D01*
X107860000Y-142051000D01*
X106260000Y-142051000D01*
G37*
D11*
X149025000Y-129275000D03*
X150125000Y-129275000D03*
X151225000Y-129275000D03*
X152325000Y-129275000D03*
X153425000Y-129275000D03*
X154525000Y-129275000D03*
X155625000Y-129275000D03*
X156725000Y-129275000D03*
X157825000Y-129275000D03*
D12*
X147825000Y-130155000D03*
D13*
X162425000Y-130155000D03*
D14*
X147825000Y-139755000D03*
X163325000Y-139755000D03*
D15*
X158623000Y-140157200D03*
X150622000Y-140157200D03*
D16*
X177927000Y-116840000D03*
X176657000Y-116840000D03*
X175387000Y-116840000D03*
X174117000Y-116840000D03*
X174117000Y-109220000D03*
X175387000Y-109220000D03*
X176657000Y-109220000D03*
X177927000Y-109220000D03*
D17*
X176530000Y-102235000D03*
X176530000Y-98425000D03*
D18*
X174579500Y-101600000D03*
X174579500Y-100330000D03*
X174579500Y-97790000D03*
X174579500Y-99060000D03*
X174579500Y-102870000D03*
X178480500Y-97790000D03*
X178480500Y-99060000D03*
X178480500Y-100330000D03*
X178480500Y-101600000D03*
X178480500Y-102870000D03*
D19*
X187901000Y-43985000D03*
X187901000Y-39835000D03*
X190051000Y-43985000D03*
X190051000Y-39835000D03*
X187901000Y-143045000D03*
X187901000Y-138895000D03*
X190051000Y-143045000D03*
X190051000Y-138895000D03*
D20*
X181645000Y-143070000D03*
X181145000Y-143070000D03*
X180645000Y-143070000D03*
X180145000Y-143070000D03*
X179645000Y-143070000D03*
X179145000Y-143070000D03*
X178645000Y-143070000D03*
X178145000Y-143070000D03*
X177645000Y-143070000D03*
X177145000Y-143070000D03*
X176645000Y-143070000D03*
X176145000Y-143070000D03*
X175645000Y-143070000D03*
X175145000Y-143070000D03*
X174645000Y-143070000D03*
X174145000Y-143070000D03*
X173645000Y-143070000D03*
X173145000Y-143070000D03*
X172645000Y-143070000D03*
X172145000Y-143070000D03*
X171645000Y-143070000D03*
X171145000Y-143070000D03*
X170645000Y-143070000D03*
X170145000Y-143070000D03*
D21*
X183795000Y-140720000D03*
X167995000Y-140720000D03*
D22*
X140335000Y-132658600D03*
X140335000Y-134658600D03*
X140335000Y-136658600D03*
X140335000Y-138658600D03*
D23*
X143185000Y-139158600D03*
X137485000Y-139158600D03*
X143185000Y-132158600D03*
X137485000Y-132158600D03*
D22*
X127101600Y-132658601D03*
X127101600Y-134658601D03*
X127101600Y-136658601D03*
X127101600Y-138658601D03*
D23*
X129951600Y-139158601D03*
X124251600Y-139158601D03*
X129951600Y-132158601D03*
X124251600Y-132158601D03*
D24*
X113360000Y-137629000D03*
X112560000Y-137629000D03*
X111760000Y-137629000D03*
X110960000Y-137629000D03*
X110160000Y-137629000D03*
D25*
X98051620Y-140484860D03*
D26*
X100063300Y-140482320D03*
D27*
X93171999Y-136800000D03*
D28*
X88571999Y-139546000D03*
D29*
X88721999Y-133546000D03*
D30*
X77470000Y-136525000D03*
D31*
X77470000Y-133985000D03*
D30*
X77470000Y-131445000D03*
X77470000Y-128905000D03*
D31*
X77470000Y-126365000D03*
D32*
X93035000Y-41910000D03*
X86035000Y-41910000D03*
X89535000Y-41910000D03*
X106370000Y-41910000D03*
X99370000Y-41910000D03*
X102870000Y-41910000D03*
D33*
X110689000Y-68000000D03*
X119689000Y-59000000D03*
D34*
X111939000Y-67950000D03*
X111439000Y-67950000D03*
D35*
X110739000Y-65250000D03*
X110739000Y-64750000D03*
X110739000Y-64250000D03*
X110739000Y-63750000D03*
X110739000Y-63250000D03*
X110739000Y-62750000D03*
X110739000Y-62250000D03*
X110739000Y-61750000D03*
X110739000Y-61250000D03*
X110739000Y-60750000D03*
X110739000Y-60250000D03*
X110739000Y-59750000D03*
D34*
X113439000Y-59050000D03*
X113939000Y-59050000D03*
X114439000Y-59050000D03*
X114939000Y-59050000D03*
X115439000Y-59050000D03*
X115939000Y-59050000D03*
X116439000Y-59050000D03*
X116939000Y-59050000D03*
X117439000Y-59050000D03*
X117939000Y-59050000D03*
X118439000Y-59050000D03*
X118939000Y-59050000D03*
D35*
X119639000Y-61750000D03*
X119639000Y-62250000D03*
X119639000Y-62750000D03*
X119639000Y-63250000D03*
X119639000Y-63750000D03*
X119639000Y-64250000D03*
X119639000Y-64750000D03*
X119639000Y-65250000D03*
X119639000Y-65750000D03*
X119639000Y-66250000D03*
X119639000Y-66750000D03*
X119639000Y-67250000D03*
D34*
X118439000Y-67950000D03*
X117939000Y-67950000D03*
X117439000Y-67950000D03*
X118939000Y-67950000D03*
D35*
X110739000Y-66750000D03*
X110739000Y-66250000D03*
X110739000Y-67250000D03*
X110739000Y-65750000D03*
D34*
X112439000Y-59050000D03*
X112939000Y-59050000D03*
X111439000Y-59050000D03*
X111939000Y-59050000D03*
D35*
X119639000Y-59750000D03*
X119639000Y-61250000D03*
X119639000Y-60250000D03*
X119639000Y-60750000D03*
D36*
X115189000Y-63500000D03*
D37*
X115189000Y-63500000D03*
D34*
X116939000Y-67950000D03*
X116439000Y-67950000D03*
X115939000Y-67950000D03*
X115439000Y-67950000D03*
X114939000Y-67950000D03*
X114439000Y-67950000D03*
X113939000Y-67950000D03*
X113439000Y-67950000D03*
X112939000Y-67950000D03*
X112439000Y-67950000D03*
D38*
X144145000Y-44450000D03*
X132715000Y-44450000D03*
D39*
X146330000Y-47650000D03*
X130530000Y-47650000D03*
D40*
X145161000Y-39878000D03*
X145161000Y-41910000D03*
X131699000Y-39878000D03*
X131699000Y-41910000D03*
X144145000Y-53340000D03*
X142875000Y-50800000D03*
X141605000Y-53340000D03*
X140335000Y-50800000D03*
X139065000Y-53340000D03*
X137795000Y-50800000D03*
X136525000Y-53340000D03*
X135255000Y-50800000D03*
X133985000Y-53340000D03*
X132715000Y-50800000D03*
D41*
X154225000Y-48165000D03*
X154225000Y-49165000D03*
X154225000Y-45165000D03*
X154225000Y-51165000D03*
X154225000Y-44165000D03*
X154225000Y-47165000D03*
X154225000Y-57165000D03*
X154225000Y-43165000D03*
X154225000Y-53165000D03*
X154225000Y-54165000D03*
X154225000Y-52165000D03*
X154225000Y-55165000D03*
X154225000Y-50165000D03*
X154225000Y-46165000D03*
X154225000Y-56165000D03*
X150575000Y-57165000D03*
X150575000Y-53165000D03*
X150575000Y-54165000D03*
X150575000Y-56165000D03*
X150575000Y-55165000D03*
X150575000Y-50165000D03*
X150575000Y-49165000D03*
X150575000Y-51165000D03*
X150575000Y-52165000D03*
X150575000Y-48165000D03*
X150575000Y-47165000D03*
X150575000Y-46165000D03*
X150575000Y-45165000D03*
X150575000Y-44165000D03*
X150575000Y-43165000D03*
D42*
X164211000Y-127254000D03*
X163195000Y-127254000D03*
X164211000Y-125984000D03*
X163195000Y-125984000D03*
D43*
X137795000Y-65430400D03*
D44*
X137795000Y-65430400D03*
D45*
X141270000Y-62680400D03*
X141270000Y-63180400D03*
X141270000Y-63680400D03*
X141270000Y-64180400D03*
X141270000Y-64680400D03*
X141270000Y-65180400D03*
X141270000Y-65680400D03*
X141270000Y-66180400D03*
X141270000Y-66680400D03*
X141270000Y-67180400D03*
X141270000Y-67680400D03*
X141270000Y-68180400D03*
D46*
X140545000Y-68905400D03*
X140045000Y-68905400D03*
X139545000Y-68905400D03*
X139045000Y-68905400D03*
X138545000Y-68905400D03*
X138045000Y-68905400D03*
X137545000Y-68905400D03*
X137045000Y-68905400D03*
X136545000Y-68905400D03*
X136045000Y-68905400D03*
X135545000Y-68905400D03*
X135045000Y-68905400D03*
D45*
X134320000Y-68180400D03*
X134320000Y-67680400D03*
X134320000Y-67180400D03*
X134320000Y-66680400D03*
X134320000Y-66180400D03*
X134320000Y-65680400D03*
X134320000Y-65180400D03*
X134320000Y-64680400D03*
X134320000Y-64180400D03*
X134320000Y-63680400D03*
X134320000Y-63180400D03*
X134320000Y-62680400D03*
D46*
X135045000Y-61955400D03*
X135545000Y-61955400D03*
X136045000Y-61955400D03*
X136545000Y-61955400D03*
X137045000Y-61955400D03*
X137545000Y-61955400D03*
X138045000Y-61955400D03*
X138545000Y-61955400D03*
X139045000Y-61955400D03*
X139545000Y-61955400D03*
X140045000Y-61955400D03*
X140545000Y-61955400D03*
D47*
X163830000Y-47275000D03*
X163830000Y-41275000D03*
D48*
X169130000Y-44175000D03*
X158530000Y-43375000D03*
X169130000Y-47275000D03*
D49*
X158530000Y-47575000D03*
X169130000Y-41075000D03*
D47*
X179070000Y-47275000D03*
X179070000Y-41275000D03*
D48*
X184370000Y-44175000D03*
X173770000Y-43375000D03*
X184370000Y-47275000D03*
D49*
X173770000Y-47575000D03*
X184370000Y-41075000D03*
D50*
X129794000Y-126873000D03*
X131826000Y-126873000D03*
D42*
X123952000Y-63500000D03*
X122936000Y-63500000D03*
D51*
X175780000Y-87525000D03*
X177280000Y-83925000D03*
X181280000Y-87525000D03*
X175280000Y-83925000D03*
X174280000Y-87525000D03*
X181280000Y-83925000D03*
X171780000Y-83925000D03*
X174780000Y-83925000D03*
X171780000Y-87525000D03*
X178280000Y-83925000D03*
X177780000Y-83925000D03*
X172780000Y-83925000D03*
X175780000Y-83925000D03*
X173280000Y-83925000D03*
X173280000Y-87525000D03*
X177780000Y-87525000D03*
X173780000Y-83925000D03*
X173780000Y-87525000D03*
X178780000Y-83925000D03*
X175280000Y-87525000D03*
X172780000Y-87525000D03*
X177280000Y-87525000D03*
X176280000Y-87525000D03*
X176280000Y-83925000D03*
X172280000Y-83925000D03*
X180280000Y-87525000D03*
X172280000Y-87525000D03*
X176780000Y-87525000D03*
X179780000Y-87525000D03*
X176780000Y-83925000D03*
X179280000Y-83925000D03*
X180280000Y-83925000D03*
X179780000Y-83925000D03*
X174280000Y-83925000D03*
X179280000Y-87525000D03*
X178780000Y-87525000D03*
X174780000Y-87525000D03*
X178280000Y-87525000D03*
X180780000Y-83925000D03*
X180780000Y-87525000D03*
D52*
X170730000Y-87225000D03*
X182330000Y-87225000D03*
D53*
X170130000Y-85725000D03*
X182930000Y-85725000D03*
D17*
X160020000Y-109855000D03*
D54*
X162052000Y-110490000D03*
X157988000Y-110490000D03*
X162052000Y-109220000D03*
X157988000Y-109220000D03*
X162052000Y-107950000D03*
X157988000Y-107950000D03*
X162052000Y-106680000D03*
X157988000Y-106680000D03*
X162052000Y-105410000D03*
X157988000Y-105410000D03*
X162052000Y-104140000D03*
X157988000Y-104140000D03*
X162052000Y-102870000D03*
X157988000Y-102870000D03*
X162052000Y-101600000D03*
X157988000Y-101600000D03*
X162052000Y-100330000D03*
X157988000Y-100330000D03*
X162052000Y-99060000D03*
X157988000Y-99060000D03*
X157988000Y-86360000D03*
X162052000Y-86360000D03*
X157988000Y-87630000D03*
X162052000Y-87630000D03*
X157988000Y-88900000D03*
X162052000Y-88900000D03*
X157988000Y-90170000D03*
X162052000Y-90170000D03*
X157988000Y-91440000D03*
X162052000Y-91440000D03*
X157988000Y-92710000D03*
X162052000Y-92710000D03*
X157988000Y-93980000D03*
X162052000Y-93980000D03*
X157988000Y-95250000D03*
X162052000Y-95250000D03*
X157988000Y-96520000D03*
X162052000Y-96520000D03*
X157988000Y-97790000D03*
X162052000Y-97790000D03*
D17*
X160020000Y-86995000D03*
D15*
X167259000Y-64770000D03*
D42*
X182245000Y-96647000D03*
X181229000Y-96647000D03*
D55*
X129286000Y-60452000D03*
X131064000Y-60452000D03*
D42*
X159512000Y-127635000D03*
X158496000Y-127635000D03*
D56*
X136172000Y-72131500D03*
X136172000Y-73156500D03*
D57*
X135632000Y-72131500D03*
X135632000Y-73156500D03*
X135132000Y-72131500D03*
X135132000Y-73156500D03*
D56*
X134592000Y-72131500D03*
X134592000Y-73156500D03*
D58*
X130560500Y-66576000D03*
X129535500Y-66576000D03*
D59*
X130560500Y-66036000D03*
X129535500Y-66036000D03*
X130560500Y-65536000D03*
X129535500Y-65536000D03*
D58*
X130560500Y-64996000D03*
X129535500Y-64996000D03*
D42*
X131191000Y-69215000D03*
X130175000Y-69215000D03*
X150876000Y-71247000D03*
X149860000Y-71247000D03*
D60*
X116459000Y-131318000D03*
X114427000Y-131318000D03*
D61*
X139349001Y-128331000D03*
X139349001Y-126431000D03*
X136749001Y-128331000D03*
X136749001Y-127381000D03*
X136749001Y-126431000D03*
D42*
X122936000Y-57531000D03*
X123952000Y-57531000D03*
X120396000Y-141986000D03*
X121412000Y-141986000D03*
X143129000Y-73152000D03*
X144145000Y-73152000D03*
X149860000Y-67183000D03*
X150876000Y-67183000D03*
D62*
X136017000Y-56134000D03*
X136017000Y-57150000D03*
X137160000Y-56134000D03*
X137160000Y-57150000D03*
D63*
X125410000Y-40460000D03*
D64*
X122610000Y-47460000D03*
X122110000Y-47460000D03*
X121610000Y-47460000D03*
X121110000Y-47460000D03*
X120610000Y-47460000D03*
X120110000Y-47460000D03*
X119610000Y-47460000D03*
X119110000Y-47460000D03*
X118610000Y-47460000D03*
X118110000Y-47460000D03*
X117610000Y-47460000D03*
X117110000Y-47460000D03*
X116610000Y-47460000D03*
X116110000Y-47460000D03*
X115610000Y-47460000D03*
X115110000Y-47460000D03*
X114610000Y-47460000D03*
X114110000Y-47460000D03*
X113610000Y-47460000D03*
D63*
X110810000Y-40460000D03*
D65*
X110810000Y-46510000D03*
X125410000Y-46510000D03*
D66*
X95123000Y-60579000D03*
X93980000Y-60579000D03*
X92837000Y-60579000D03*
D67*
X106553000Y-125476000D03*
X107315000Y-125476000D03*
D55*
X98171000Y-136652000D03*
X99949000Y-136652000D03*
X101854000Y-124079000D03*
X100076000Y-124079000D03*
D62*
X118237000Y-55245000D03*
X118237000Y-54229000D03*
D42*
X122936000Y-59690000D03*
X123952000Y-59690000D03*
X123952000Y-69342000D03*
X122936000Y-69342000D03*
X106426000Y-58928000D03*
X107442000Y-58928000D03*
X123952000Y-64516000D03*
X122936000Y-64516000D03*
X106426000Y-60071000D03*
X107442000Y-60071000D03*
D62*
X114808000Y-71628000D03*
X114808000Y-70612000D03*
X113030000Y-55245000D03*
X113030000Y-54229000D03*
X115189000Y-54229000D03*
X115189000Y-55245000D03*
D42*
X123952000Y-56642000D03*
X122936000Y-56642000D03*
D62*
X172085000Y-52832000D03*
X172085000Y-51816000D03*
X175895000Y-63500000D03*
X175895000Y-64516000D03*
X176911000Y-64516000D03*
X176911000Y-63500000D03*
D42*
X171450000Y-56261000D03*
X170434000Y-56261000D03*
D62*
X176657000Y-51816000D03*
X176657000Y-52832000D03*
D55*
X178054000Y-51435000D03*
X178054000Y-53213000D03*
D62*
X168021000Y-52578000D03*
X168021000Y-51562000D03*
D42*
X166878000Y-134874000D03*
X165862000Y-134874000D03*
X165862000Y-131064000D03*
X166878000Y-131064000D03*
X165862000Y-129794000D03*
X166878000Y-129794000D03*
X165862000Y-125984000D03*
X166878000Y-125984000D03*
D62*
X159258000Y-52578000D03*
X159258000Y-51562000D03*
D55*
X138684000Y-58928000D03*
X138684000Y-57150000D03*
D62*
X137160000Y-59182000D03*
X137160000Y-58166000D03*
D42*
X145923000Y-65532000D03*
X144907000Y-65532000D03*
D62*
X140335000Y-72136000D03*
X140335000Y-73152000D03*
D42*
X145923000Y-68834000D03*
X144907000Y-68834000D03*
X131191000Y-64135000D03*
X130175000Y-64135000D03*
D62*
X137287000Y-73152000D03*
X137287000Y-72136000D03*
D55*
X151892000Y-65786000D03*
X150114000Y-65786000D03*
D42*
X114935000Y-132842000D03*
X115951000Y-132842000D03*
X128016000Y-70104000D03*
X129032000Y-70104000D03*
D68*
X91313000Y-47879000D03*
X91313000Y-47117000D03*
D69*
X95671000Y-134366000D03*
X100671000Y-134366000D03*
D70*
X104206040Y-133441440D03*
X106108500Y-133441440D03*
X105153460Y-131231640D03*
D50*
X172974000Y-65405000D03*
X172974000Y-63373000D03*
D60*
X123444000Y-61087000D03*
X125476000Y-61087000D03*
X145415000Y-66802000D03*
X147447000Y-66802000D03*
D71*
X82931000Y-135763000D03*
X82931000Y-137287000D03*
D42*
X108204000Y-134874000D03*
X109220000Y-134874000D03*
X100965000Y-132334000D03*
X101981000Y-132334000D03*
X100965000Y-131318000D03*
X101981000Y-131318000D03*
X104648000Y-129667000D03*
X105664000Y-129667000D03*
D62*
X89535000Y-53848000D03*
X89535000Y-54864000D03*
X180594000Y-107061000D03*
X180594000Y-108077000D03*
X82931000Y-134112000D03*
X82931000Y-133096000D03*
D42*
X171450000Y-60706000D03*
X170434000Y-60706000D03*
X171450000Y-59436000D03*
X170434000Y-59436000D03*
X107442000Y-57785000D03*
X106426000Y-57785000D03*
X106426000Y-56642000D03*
X107442000Y-56642000D03*
X123952000Y-62484000D03*
X122936000Y-62484000D03*
X170434000Y-58420000D03*
X171450000Y-58420000D03*
X170434000Y-57404000D03*
X171450000Y-57404000D03*
D62*
X171577000Y-64516000D03*
X171577000Y-63500000D03*
D42*
X122936000Y-58420000D03*
X123952000Y-58420000D03*
X122936000Y-55753000D03*
X123952000Y-55753000D03*
D62*
X111506000Y-55245000D03*
X111506000Y-54229000D03*
X184658000Y-50546000D03*
X184658000Y-49530000D03*
X181610000Y-52832000D03*
X181610000Y-51816000D03*
X172085000Y-50546000D03*
X172085000Y-49530000D03*
X118237000Y-52197000D03*
X118237000Y-51181000D03*
X119634000Y-54229000D03*
X119634000Y-55245000D03*
X120777000Y-55245000D03*
X120777000Y-54229000D03*
X122174000Y-52197000D03*
X122174000Y-51181000D03*
X110363000Y-55245000D03*
X110363000Y-54229000D03*
X179451000Y-52832000D03*
X179451000Y-51816000D03*
D42*
X161925000Y-53213000D03*
X162941000Y-53213000D03*
X166878000Y-133604000D03*
X165862000Y-133604000D03*
X166878000Y-132334000D03*
X165862000Y-132334000D03*
D62*
X160401000Y-51562000D03*
X160401000Y-52578000D03*
X89280999Y-48006000D03*
X89280999Y-46990000D03*
X88391999Y-46990000D03*
X88391999Y-48006000D03*
X98933000Y-48006000D03*
X98933000Y-46990000D03*
X98044000Y-46990000D03*
X98044000Y-48006000D03*
D42*
X165862000Y-127254000D03*
X166878000Y-127254000D03*
D62*
X97155000Y-46990000D03*
X97155000Y-48006000D03*
X107061000Y-48006000D03*
X107061000Y-46990000D03*
D42*
X90805000Y-114300000D03*
X91821000Y-114300000D03*
X104521000Y-58928000D03*
X103505000Y-58928000D03*
D62*
X96901000Y-61087000D03*
X96901000Y-60071000D03*
X104521000Y-60071000D03*
X104521000Y-61087000D03*
D42*
X91821000Y-113030000D03*
X90805000Y-113030000D03*
X90805000Y-109220000D03*
X91821000Y-109220000D03*
X149860000Y-62357000D03*
X150876000Y-62357000D03*
X149860000Y-63373000D03*
X150876000Y-63373000D03*
D62*
X120523000Y-126365000D03*
X120523000Y-127381000D03*
D42*
X140716000Y-128397000D03*
X141732000Y-128397000D03*
D62*
X80518000Y-125476000D03*
X80518000Y-126492000D03*
D42*
X119253000Y-132842000D03*
X120269000Y-132842000D03*
D62*
X124206000Y-127381001D03*
X124206000Y-128397001D03*
X135382000Y-128397000D03*
X135382000Y-127381000D03*
D42*
X181229000Y-99060000D03*
X182245000Y-99060000D03*
X150876000Y-68199000D03*
X149860000Y-68199000D03*
X149860000Y-69215000D03*
X150876000Y-69215000D03*
X127762000Y-62230000D03*
X126746000Y-62230000D03*
X127762000Y-63119000D03*
X126746000Y-63119000D03*
X127762000Y-57658000D03*
X126746000Y-57658000D03*
X126746000Y-59944000D03*
X127762000Y-59944000D03*
D62*
X112903000Y-133858000D03*
X112903000Y-132842000D03*
X141224000Y-72136000D03*
X141224000Y-73152000D03*
X142113000Y-73152000D03*
X142113000Y-72136000D03*
X139446000Y-73152000D03*
X139446000Y-72136000D03*
X138557000Y-73152000D03*
X138557000Y-72136000D03*
X185547000Y-80772000D03*
X185547000Y-79756000D03*
D56*
X133759000Y-72131500D03*
X133759000Y-73156500D03*
D57*
X133219000Y-72131500D03*
X133219000Y-73156500D03*
X132719000Y-72131500D03*
X132719000Y-73156500D03*
D56*
X132179000Y-72131500D03*
X132179000Y-73156500D03*
D72*
X119269000Y-52126500D03*
X119769000Y-52126500D03*
D73*
X120269000Y-52076500D03*
D72*
X120769000Y-52126500D03*
X121269000Y-52126500D03*
X121269000Y-51251500D03*
X120769000Y-51251500D03*
D73*
X120269000Y-51301500D03*
D72*
X119769000Y-51251500D03*
X119269000Y-51251500D03*
D74*
X99695000Y-56729000D03*
X100965000Y-56729000D03*
X102235000Y-56729000D03*
X103505000Y-56729000D03*
X103505000Y-51729000D03*
X102235000Y-51729000D03*
X100965000Y-51729000D03*
X99695000Y-51729000D03*
D75*
X162356800Y-68224400D03*
X162356800Y-65913000D03*
X162356800Y-63601600D03*
D76*
X156159000Y-65913000D03*
D70*
X104206040Y-128107440D03*
X106108500Y-128107440D03*
X105153460Y-125897640D03*
D77*
X77470000Y-143510000D03*
X77470000Y-39370000D03*
X196850000Y-39370000D03*
D42*
X166878000Y-128524000D03*
X165862000Y-128524000D03*
X131191000Y-70104000D03*
X130175000Y-70104000D03*
D62*
X147574000Y-127381000D03*
X147574000Y-126365000D03*
D42*
X95885000Y-58928000D03*
X96901000Y-58928000D03*
D66*
X102743000Y-60579000D03*
X101600000Y-60579000D03*
X100457000Y-60579000D03*
D50*
X100076000Y-138430000D03*
X98044000Y-138430000D03*
D60*
X90297000Y-127254000D03*
X90297000Y-125222000D03*
X90297000Y-130937000D03*
X90297000Y-128905000D03*
D55*
X101854000Y-125603000D03*
X100076000Y-125603000D03*
X173609000Y-53213000D03*
X173609000Y-51435000D03*
X175133000Y-51435001D03*
X175133000Y-53213001D03*
X116967000Y-56261000D03*
X116967000Y-54483000D03*
X123190000Y-70612000D03*
X124968000Y-70612000D03*
X123190000Y-65786000D03*
X124968000Y-65786000D03*
D62*
X184658000Y-52832000D03*
X184658000Y-51816000D03*
X182626000Y-51816000D03*
X182626000Y-52832000D03*
D55*
X174625000Y-63754000D03*
X174625000Y-65532000D03*
X181229001Y-60706000D03*
X183007001Y-60706000D03*
D50*
X181102001Y-56896000D03*
X183134001Y-56896000D03*
X181102001Y-58928000D03*
X183134001Y-58928000D03*
X183134001Y-54864000D03*
X181102001Y-54864000D03*
D55*
X164973000Y-51816000D03*
X166751000Y-51816000D03*
X161671000Y-51816000D03*
X163449000Y-51816000D03*
D42*
X94488000Y-58928000D03*
X93472000Y-58928000D03*
X102108000Y-58928000D03*
X101092000Y-58928000D03*
D55*
X165100000Y-68326000D03*
X165100000Y-66548000D03*
D42*
X145923000Y-60274200D03*
X144907000Y-60274200D03*
X144907000Y-64643000D03*
X145923000Y-64643000D03*
D55*
X163195000Y-60198000D03*
X163195000Y-61976000D03*
D60*
X140462000Y-58801000D03*
X140462000Y-56769000D03*
D62*
X136017000Y-59182000D03*
X136017000Y-58166000D03*
D50*
X129159000Y-62357000D03*
X131191000Y-62357000D03*
D55*
X129159000Y-67818000D03*
X130937000Y-67818000D03*
D62*
X131318000Y-73152000D03*
X131318000Y-72136000D03*
D42*
X145923000Y-69723000D03*
X144907000Y-69723000D03*
D60*
X118745000Y-127000000D03*
X118745000Y-124968000D03*
D50*
X143002000Y-126873000D03*
X140970000Y-126873000D03*
X114427000Y-129159000D03*
X116459000Y-129159000D03*
X121920000Y-138430000D03*
X119888000Y-138430000D03*
X133096000Y-138430000D03*
X135128000Y-138430000D03*
X114427000Y-127127000D03*
X116459000Y-127127000D03*
X119888000Y-136398000D03*
X121920000Y-136398000D03*
X135128000Y-136398000D03*
X133096000Y-136398000D03*
X116459000Y-125095000D03*
X114427000Y-125095000D03*
X121920000Y-134366000D03*
X119888000Y-134366000D03*
X135128000Y-134366000D03*
X133096000Y-134366000D03*
D42*
X134620000Y-141986000D03*
X133604000Y-141986000D03*
D78*
X128651000Y-53467000D03*
X128651000Y-49911000D03*
D60*
X155829000Y-124968000D03*
X155829000Y-127000000D03*
D68*
X100965000Y-47879000D03*
X100965000Y-47117000D03*
D79*
X87376000Y-126347000D03*
X87376000Y-130701000D03*
D69*
X156123000Y-60833000D03*
X161123000Y-60833000D03*
D80*
X80137000Y-131567000D03*
X80137000Y-127767000D03*
D81*
X188645000Y-83820000D03*
X194895000Y-83820000D03*
X188645000Y-86360000D03*
X194895000Y-86360000D03*
X188645000Y-88900000D03*
X194895000Y-88900000D03*
X188645000Y-91440000D03*
X194895000Y-91440000D03*
X188645000Y-93980000D03*
X194895000Y-93980000D03*
X188645000Y-96520000D03*
X194895000Y-96520000D03*
X188645000Y-99060000D03*
X194895000Y-99060000D03*
X188645000Y-101600000D03*
X194895000Y-101600000D03*
X188645000Y-104140000D03*
X194895000Y-104140000D03*
X188645000Y-106680000D03*
X194895000Y-106680000D03*
X188645000Y-109220000D03*
X194895000Y-109220000D03*
X188645000Y-111760000D03*
X194895000Y-111760000D03*
X188645000Y-114300000D03*
X194895000Y-114300000D03*
X188645000Y-116840000D03*
X194895000Y-116840000D03*
X188645000Y-119380000D03*
X194895000Y-119380000D03*
X188645000Y-121920000D03*
X194895000Y-121920000D03*
X188645000Y-124460000D03*
X194895000Y-124460000D03*
X188645000Y-127000000D03*
X194895000Y-127000000D03*
X188645000Y-129540000D03*
X194895000Y-129540000D03*
X188645000Y-132080000D03*
X194895000Y-132080000D03*
D82*
X191770000Y-85090000D03*
X191770000Y-130810000D03*
D81*
X188645000Y-50800000D03*
X194895000Y-50800000D03*
X188645000Y-53340000D03*
X194895000Y-53340000D03*
X188645000Y-55880000D03*
X194895000Y-55880000D03*
X188645000Y-58420000D03*
X194895000Y-58420000D03*
X188645000Y-60960000D03*
X194895000Y-60960000D03*
X188645000Y-63500000D03*
X194895000Y-63500000D03*
X188645000Y-66040000D03*
X194895000Y-66040000D03*
X188645000Y-68580000D03*
X194895000Y-68580000D03*
X188645000Y-71120000D03*
X194895000Y-71120000D03*
X188645000Y-73660000D03*
X194895000Y-73660000D03*
D82*
X191770000Y-52070000D03*
X191770000Y-72390000D03*
D70*
X108709460Y-125897640D03*
X109664500Y-128107440D03*
X107762040Y-128107440D03*
D83*
X82931000Y-126324000D03*
X82931000Y-130724000D03*
D84*
X124079000Y-53089000D03*
X124079000Y-50289000D03*
D17*
X97790000Y-109855000D03*
D54*
X99822000Y-110490000D03*
X95758000Y-110490000D03*
X99822000Y-109220000D03*
X95758000Y-109220000D03*
X99822000Y-107950000D03*
X95758000Y-107950000D03*
X99822000Y-106680000D03*
X95758000Y-106680000D03*
X99822000Y-105410000D03*
X95758000Y-105410000D03*
X99822000Y-104140000D03*
X95758000Y-104140000D03*
X99822000Y-102870000D03*
X95758000Y-102870000D03*
X99822000Y-101600000D03*
X95758000Y-101600000D03*
X99822000Y-100330000D03*
X95758000Y-100330000D03*
X99822000Y-99060000D03*
X95758000Y-99060000D03*
X95758000Y-86360000D03*
X99822000Y-86360000D03*
X95758000Y-87630000D03*
X99822000Y-87630000D03*
X95758000Y-88900000D03*
X99822000Y-88900000D03*
X95758000Y-90170000D03*
X99822000Y-90170000D03*
X95758000Y-91440000D03*
X99822000Y-91440000D03*
X95758000Y-92710000D03*
X99822000Y-92710000D03*
X95758000Y-93980000D03*
X99822000Y-93980000D03*
X95758000Y-95250000D03*
X99822000Y-95250000D03*
X95758000Y-96520000D03*
X99822000Y-96520000D03*
X95758000Y-97790000D03*
X99822000Y-97790000D03*
D17*
X97790000Y-86995000D03*
X102870000Y-118745000D03*
D85*
X113665000Y-116713000D03*
X113665000Y-120777000D03*
X112395000Y-116713000D03*
X112395000Y-120777000D03*
X111125000Y-116713000D03*
X111125000Y-120777000D03*
X109855000Y-116713000D03*
X109855000Y-120777000D03*
X108585000Y-116713000D03*
X108585000Y-120777000D03*
X107315000Y-116713000D03*
X107315000Y-120777000D03*
X106045000Y-116713000D03*
X106045000Y-120777000D03*
X104775000Y-116713000D03*
X104775000Y-120777000D03*
X103505000Y-116713000D03*
X103505000Y-120777000D03*
X102235000Y-116713000D03*
X102235000Y-120777000D03*
X114935000Y-120777000D03*
X114935000Y-116713000D03*
X116205000Y-120777000D03*
X116205000Y-116713000D03*
X117475000Y-120777000D03*
X117475000Y-116713000D03*
X118745000Y-120777000D03*
X118745000Y-116713000D03*
X120015000Y-120777000D03*
X120015000Y-116713000D03*
X121285000Y-120777000D03*
X121285000Y-116713000D03*
X122555000Y-120777000D03*
X122555000Y-116713000D03*
X123825000Y-120777000D03*
X123825000Y-116713000D03*
X125095000Y-120777000D03*
X125095000Y-116713000D03*
X126365000Y-120777000D03*
X126365000Y-116713000D03*
D17*
X125730000Y-118745000D03*
X153670000Y-118745000D03*
D85*
X154305000Y-116713000D03*
X154305000Y-120777000D03*
X153035000Y-116713000D03*
X153035000Y-120777000D03*
X151765000Y-116713000D03*
X151765000Y-120777000D03*
X150495000Y-116713000D03*
X150495000Y-120777000D03*
X149225000Y-116713000D03*
X149225000Y-120777000D03*
X147955000Y-116713000D03*
X147955000Y-120777000D03*
X146685000Y-116713000D03*
X146685000Y-120777000D03*
X145415000Y-116713000D03*
X145415000Y-120777000D03*
X144145000Y-116713000D03*
X144145000Y-120777000D03*
X142875000Y-116713000D03*
X142875000Y-120777000D03*
X130175000Y-120777000D03*
X130175000Y-116713000D03*
X131445000Y-120777000D03*
X131445000Y-116713000D03*
X132715000Y-120777000D03*
X132715000Y-116713000D03*
X133985000Y-120777000D03*
X133985000Y-116713000D03*
X135255000Y-120777000D03*
X135255000Y-116713000D03*
X136525000Y-120777000D03*
X136525000Y-116713000D03*
X137795000Y-120777000D03*
X137795000Y-116713000D03*
X139065000Y-120777000D03*
X139065000Y-116713000D03*
X140335000Y-120777000D03*
X140335000Y-116713000D03*
X141605000Y-120777000D03*
X141605000Y-116713000D03*
D17*
X130810000Y-118745000D03*
X130810000Y-78105000D03*
D85*
X141605000Y-76073000D03*
X141605000Y-80137000D03*
X140335000Y-76073000D03*
X140335000Y-80137000D03*
X139065000Y-76073000D03*
X139065000Y-80137000D03*
X137795000Y-76073000D03*
X137795000Y-80137000D03*
X136525000Y-76073000D03*
X136525000Y-80137000D03*
X135255000Y-76073000D03*
X135255000Y-80137000D03*
X133985000Y-76073000D03*
X133985000Y-80137000D03*
X132715000Y-76073000D03*
X132715000Y-80137000D03*
X131445000Y-76073000D03*
X131445000Y-80137000D03*
X130175000Y-76073000D03*
X130175000Y-80137000D03*
X142875000Y-80137000D03*
X142875000Y-76073000D03*
X144145000Y-80137000D03*
X144145000Y-76073000D03*
X145415000Y-80137000D03*
X145415000Y-76073000D03*
X146685000Y-80137000D03*
X146685000Y-76073000D03*
X147955000Y-80137000D03*
X147955000Y-76073000D03*
X149225000Y-80137000D03*
X149225000Y-76073000D03*
X150495000Y-80137000D03*
X150495000Y-76073000D03*
X151765000Y-80137000D03*
X151765000Y-76073000D03*
X153035000Y-80137000D03*
X153035000Y-76073000D03*
X154305000Y-80137000D03*
X154305000Y-76073000D03*
D17*
X153670000Y-78105000D03*
X102870000Y-78105000D03*
D85*
X113665000Y-76073000D03*
X113665000Y-80137000D03*
X112395000Y-76073000D03*
X112395000Y-80137000D03*
X111125000Y-76073000D03*
X111125000Y-80137000D03*
X109855000Y-76073000D03*
X109855000Y-80137000D03*
X108585000Y-76073000D03*
X108585000Y-80137000D03*
X107315000Y-76073000D03*
X107315000Y-80137000D03*
X106045000Y-76073000D03*
X106045000Y-80137000D03*
X104775000Y-76073000D03*
X104775000Y-80137000D03*
X103505000Y-76073000D03*
X103505000Y-80137000D03*
X102235000Y-76073000D03*
X102235000Y-80137000D03*
X114935000Y-80137000D03*
X114935000Y-76073000D03*
X116205000Y-80137000D03*
X116205000Y-76073000D03*
X117475000Y-80137000D03*
X117475000Y-76073000D03*
X118745000Y-80137000D03*
X118745000Y-76073000D03*
X120015000Y-80137000D03*
X120015000Y-76073000D03*
X121285000Y-80137000D03*
X121285000Y-76073000D03*
X122555000Y-80137000D03*
X122555000Y-76073000D03*
X123825000Y-80137000D03*
X123825000Y-76073000D03*
X125095000Y-80137000D03*
X125095000Y-76073000D03*
X126365000Y-80137000D03*
X126365000Y-76073000D03*
D17*
X125730000Y-78105000D03*
D86*
X95250000Y-125243000D03*
X95250000Y-131043000D03*
D60*
X145415000Y-71120000D03*
X147447000Y-71120000D03*
D50*
X134493000Y-58674000D03*
X134493000Y-56642000D03*
D60*
X121920000Y-140462000D03*
X119888000Y-140462000D03*
X135128000Y-140462000D03*
X133096000Y-140462000D03*
D42*
X143129000Y-72136000D03*
X144145000Y-72136000D03*
X128016000Y-69215000D03*
X129032000Y-69215000D03*
D60*
X157988000Y-126238000D03*
X160020000Y-126238000D03*
D82*
X82550000Y-52070000D03*
X82550000Y-97790000D03*
D81*
X79425000Y-50800000D03*
X85675000Y-50800000D03*
X79425000Y-53340000D03*
X85675000Y-53340000D03*
X79425000Y-55880000D03*
X85675000Y-55880000D03*
X79425000Y-58420000D03*
X85675000Y-58420000D03*
X79425000Y-60960000D03*
X85675000Y-60960000D03*
X79425000Y-63500000D03*
X85675000Y-63500000D03*
X79425000Y-66040000D03*
X85675000Y-66040000D03*
X79425000Y-68580000D03*
X85675000Y-68580000D03*
X79425000Y-71120000D03*
X85675000Y-71120000D03*
X79425000Y-73660000D03*
X85675000Y-73660000D03*
X79425000Y-76200000D03*
X85675000Y-76200000D03*
X79425000Y-78740000D03*
X85675000Y-78740000D03*
X79425000Y-81280000D03*
X85675000Y-81280000D03*
X79425000Y-83820000D03*
X85675000Y-83820000D03*
X79425000Y-86360000D03*
X85675000Y-86360000D03*
X79425000Y-88900000D03*
X85675000Y-88900000D03*
X79425000Y-91440000D03*
X85675000Y-91440000D03*
X79425000Y-93980000D03*
X85675000Y-93980000D03*
X79425000Y-96520000D03*
X85675000Y-96520000D03*
X79425000Y-99060000D03*
X85675000Y-99060000D03*
D87*
X96520000Y-118745000D03*
X160020000Y-118745000D03*
X160020000Y-78105000D03*
X96520000Y-78105000D03*
X80010000Y-140970000D03*
X194310000Y-140970000D03*
X194310000Y-41910000D03*
X80010000Y-41910000D03*
D88*
X147531000Y-61684000D03*
X145331000Y-63284000D03*
X145331000Y-61684000D03*
X147531000Y-63284000D03*
D42*
X109220000Y-129667000D03*
X108204000Y-129667000D03*
D62*
X89535000Y-51562000D03*
X89535000Y-52578000D03*
D89*
X92964000Y-47498000D03*
X95758000Y-47498000D03*
X105410000Y-47498000D03*
X102616000Y-47498000D03*
D90*
X165100000Y-64897000D03*
X165100000Y-62103000D03*
D55*
X145923000Y-57150000D03*
X145923000Y-58928000D03*
D42*
X149860000Y-64389000D03*
X150876000Y-64389000D03*
X149860000Y-70231000D03*
X150876000Y-70231000D03*
X130556000Y-128397000D03*
X129540000Y-128397000D03*
D62*
X153035000Y-126365000D03*
X153035000Y-127381000D03*
X154051000Y-127381000D03*
X154051000Y-126365000D03*
D56*
X177899000Y-64520500D03*
X177899000Y-63495500D03*
D57*
X178439000Y-64520500D03*
X178439000Y-63495500D03*
X178939000Y-64520500D03*
X178939000Y-63495500D03*
D56*
X179479000Y-64520500D03*
X179479000Y-63495500D03*
D66*
X151511000Y-127127000D03*
X151511000Y-125603000D03*
X148971000Y-127127000D03*
X148971000Y-125603000D03*
D91*
X150622000Y-127127000D03*
X149860000Y-127127000D03*
X150622000Y-125603000D03*
X149860000Y-125603000D03*
D92*
X132903000Y-56231000D03*
X131003000Y-56231000D03*
X132903000Y-58831000D03*
X131953000Y-58831000D03*
X131003000Y-58831000D03*
X142433000Y-58831000D03*
X143383000Y-58831000D03*
X144333000Y-58831000D03*
X142433000Y-56231000D03*
X144333000Y-56231000D03*
D70*
X107762000Y-133434000D03*
X109662000Y-133434000D03*
X108712000Y-131234000D03*
D92*
X100014999Y-127350900D03*
X100964999Y-127350900D03*
X101914999Y-127350900D03*
X101914999Y-129951100D03*
X100964999Y-129951100D03*
X100014999Y-129951100D03*
D72*
X112030000Y-52126500D03*
X112530000Y-52126500D03*
D73*
X113030000Y-52076500D03*
D72*
X113530000Y-52126500D03*
X114030000Y-52126500D03*
X114030000Y-51251500D03*
X113530000Y-51251500D03*
D73*
X113030000Y-51301500D03*
D72*
X112530000Y-51251500D03*
X112030000Y-51251500D03*
X115205000Y-51251500D03*
X115705000Y-51251500D03*
D73*
X116205000Y-51301500D03*
D72*
X116705000Y-51251500D03*
X117205000Y-51251500D03*
X117205000Y-52126500D03*
X116705000Y-52126500D03*
D73*
X116205000Y-52076500D03*
D72*
X115705000Y-52126500D03*
X115205000Y-52126500D03*
D93*
X176149000Y-58166000D03*
D94*
X177049000Y-57266000D03*
X175249000Y-57266000D03*
X177049000Y-59066000D03*
X175249000Y-59066000D03*
D95*
X176149000Y-58166000D03*
D96*
X174065180Y-59516000D03*
X174065180Y-59066000D03*
X174065180Y-58616000D03*
X174065180Y-58166000D03*
X174065180Y-57716000D03*
X174065180Y-57266000D03*
X174065180Y-56816000D03*
D97*
X174799000Y-56082180D03*
X175249000Y-56082180D03*
X175699000Y-56082180D03*
X176149000Y-56082180D03*
X176599000Y-56082180D03*
X177049000Y-56082180D03*
X177499000Y-56082180D03*
D96*
X178232820Y-56816000D03*
X178232820Y-57266000D03*
X178232820Y-57716000D03*
X178232820Y-58166000D03*
X178232820Y-58616000D03*
X178232820Y-59066000D03*
X178232820Y-59516000D03*
D97*
X177499000Y-60249820D03*
X177049000Y-60249820D03*
X176599000Y-60249820D03*
X176149000Y-60249820D03*
X175699000Y-60249820D03*
X175249000Y-60249820D03*
X174799000Y-60249820D03*
D74*
X92075000Y-56729000D03*
X93345000Y-56729000D03*
X94615000Y-56729000D03*
X95885000Y-56729000D03*
X95885000Y-51729000D03*
X94615000Y-51729000D03*
X93345000Y-51729000D03*
X92075000Y-51729000D03*
D92*
X120203000Y-128748000D03*
X118303000Y-128748000D03*
X120203000Y-131348000D03*
X119253000Y-131348000D03*
X118303000Y-131348000D03*
D61*
X125573000Y-126431000D03*
X125573000Y-127381000D03*
X125573000Y-128331000D03*
X128173000Y-126431000D03*
X128173000Y-128331000D03*
D82*
X82550000Y-118110000D03*
D81*
X79425000Y-109220000D03*
X85675000Y-109220000D03*
X79425000Y-111760000D03*
X85675000Y-111760000D03*
X79425000Y-114300000D03*
X85675000Y-114300000D03*
X79425000Y-116840000D03*
X85675000Y-116840000D03*
X79425000Y-119380000D03*
X85675000Y-119380000D03*
D82*
X82550000Y-110490000D03*
D62*
X121285000Y-83439000D03*
X121285000Y-82423000D03*
D55*
X168783000Y-62484000D03*
X170561000Y-62484000D03*
X166370000Y-58420000D03*
X166370000Y-60198000D03*
D62*
X125857000Y-82423000D03*
X125857000Y-83439000D03*
X127381000Y-83439000D03*
X127381000Y-82423000D03*
D42*
X171450000Y-54229000D03*
X170434000Y-54229000D03*
X170434000Y-55245000D03*
X171450000Y-55245000D03*
D55*
X106045000Y-52451000D03*
X107823000Y-52451000D03*
X106045000Y-50673000D03*
X107823000Y-50673000D03*
D70*
X104074000Y-136949000D03*
X102174000Y-136949000D03*
X103124000Y-139149000D03*
D98*
G36*
X198018400Y-82448400D02*
G01*
X196570600Y-82448400D01*
X196570600Y-75031600D01*
X198018400Y-75031600D01*
X198018400Y-82448400D01*
X198018400Y-82448400D01*
G37*
X198018400Y-82448400D02*
X196570600Y-82448400D01*
X196570600Y-75031600D01*
X198018400Y-75031600D01*
X198018400Y-82448400D01*
M02*
