M48
; DRILL file {KiCad 5.1.0-rc2-unknown-036be7d~80~ubuntu16.04.1} date 10.04.2023 (пн) 13:58:05 EEST
; FORMAT={-:-/ absolute / inch / decimal}
; #@! TF.CreationDate,2023-04-10T13:58:05+03:00*
; #@! TF.GenerationSoftware,Kicad,Pcbnew,5.1.0-rc2-unknown-036be7d~80~ubuntu16.04.1
; #@! TF.FileFunction,NonPlated,1,4,NPTH
FMAT,2
INCH
T1C0.0236
T2C0.0276
T3C0.0394
T4C0.0472
T5C0.0669
T6C0.1299
T7C0.1299
%
G90
G05
T1
X6.7217Y-3.4341
X7.1783Y-3.4341
T2
X5.15Y-3.075
X6.05Y-3.075
X6.3Y-3.425
X6.3Y-4.325
X6.95Y-3.875
X6.95Y-4.025
X5.15Y-4.675
X6.05Y-4.675
X3.85Y-3.425
X3.85Y-4.325
X4.05Y-3.075
X4.95Y-3.075
X4.05Y-4.675
X4.95Y-4.675
T3
X4.3134Y-5.525
X4.4866Y-5.525
X5.93Y-5.518
X6.245Y-5.518
T4
X7.55Y-3.35
X7.55Y-5.15
X3.25Y-2.05
X3.25Y-3.85
X3.25Y-4.35
X3.25Y-4.65
X7.55Y-2.05
X7.55Y-2.85
T5
X7.05Y-1.625
X7.05Y-1.8612
X6.45Y-1.625
X6.45Y-1.8612
T6
X5.225Y-1.75
X5.675Y-1.75
T7
X6.3Y-4.675
X3.8Y-3.075
X6.3Y-3.075
X3.15Y-5.55
X3.8Y-4.675
X7.65Y-5.55
X3.15Y-1.65
X7.65Y-1.65
T0
M30
